# xmcd
#
# Track frame offsets: 
#        150
#        15047
#        27208
#        46774
#        59349
#        69778
#        82158
#        95103
#        108363
#        119892
#        131261
#        142792
#        158264
#
# Disc length: 2339 seconds
#
# Revision: 0
# Processed by: cddbd v1.5.1PL2 Copyright (c) Steve Scherf et al.
# Submitted via: ExactAudioCopy v0.95b4
#
DISCID=9909210d
DTITLE=Mike Jones - Ginny's Calling
DYEAR=2005
DGENRE=Bluegrass
TTITLE0=John Henry
TTITLE1=On and On
TTITLE2=Ginny's Calling
TTITLE3=Do You Ever Think Of Me
TTITLE4=Count On You
TTITLE5=Those Memories of You
TTITLE6=Gone Home
TTITLE7=If I Should Wander Back
TTITLE8=Five Pounds of Possum
TTITLE9=Foggy Mountain Top
TTITLE10=Darling Corey
TTITLE11=Worried Man Blues
TTITLE12=The Water's so Cold
EXTD=
EXTT0=
EXTT1=
EXTT2=
EXTT3=
EXTT4=
EXTT5=
EXTT6=
EXTT7=
EXTT8=
EXTT9=
EXTT10=
EXTT11=
EXTT12=
PLAYORDER=
